# xmcd
#
# Track frame offsets:
#	150
#	11150
#	23975
#	39750
#	51575
#	61775
#	75875
#	87200
#	100350
#	111000
#
# Disc length: 1671 seconds
#
# Revision: 0
# Processed by: cddbd v1.4PL0 Copyright (c) Steve Scherf et al.
# Submitted via: dBpowerAMP V4.0
#
DISCID=6f06850a
DTITLE=Muddy Waters - One More Mile (The Blues Collection)
DYEAR=1900
DGENRE=
TTITLE0=Diamonds At Your Feet
TTITLE1=Stuff You Gotta' Watch
TTITLE2=Iodine In MY Coffee
TTITLE3=You Gonna' Miss Me
TTITLE4=Mean Red Spider
TTITLE5=You Gonna' Need My Help
TTITLE6=She's All Right
TTITLE7=So Glad I'm Livin'
TTITLE8=One More Mile
TTITLE9=Close To You
EXTD=geoo
EXTT0=
EXTT1=
EXTT2=
EXTT3=
EXTT4=
EXTT5=
EXTT6=
EXTT7=
EXTT8=
EXTT9=
PLAYORDER=
